<svg width="188" height="29" viewBox="0 0 188 29" xmlns="http://www.w3.org/2000/svg"><g fill="none" fill-rule="evenodd"><g fill="#252F3D"><path d="M46.109 23.385c-4.305 3.224-10.56 4.92-15.942 4.92-7.533 0-14.327-2.816-19.472-7.5-.404-.373-.034-.882.437-.576 5.55 3.258 12.41 5.192 19.506 5.192 4.776 0 10.022-.984 14.865-3.054.707-.306 1.346.475.606 1.018z"/><path d="M47.925 21.315c-.538-.713-3.632-.34-5.045-.17-.437.068-.47-.305-.1-.577 2.454-1.765 6.524-1.256 6.995-.645.47.577-.135 4.684-2.422 6.618-.37.305-.706.136-.538-.271.47-1.29 1.648-4.243 1.11-4.955zM42.981 8.249V6.552c0-.271.202-.441.437-.441h7.534c.235 0 .437.17.437.441v1.46c0 .237-.202.576-.572 1.085l-3.901 5.634c1.446-.034 2.993.17 4.305.916.302.17.37.408.403.679v1.799c0 .237-.269.543-.571.373-2.321-1.222-5.415-1.358-7.971 0-.27.136-.538-.136-.538-.407V16.36c0-.272 0-.747.269-1.154l4.54-6.55h-3.935c-.235 0-.437-.17-.437-.407zM57.88 5.873c3.397 0 5.246 2.953 5.246 6.72 0 3.631-2.051 6.516-5.246 6.516-3.33 0-5.18-2.953-5.18-6.618.034-3.767 1.85-6.618 5.18-6.618zm.033 2.41c-1.681 0-1.816 2.342-1.816 3.767 0 1.46-.033 4.547 1.783 4.547 1.782 0 1.85-2.51 1.85-4.038 0-.984-.034-2.206-.337-3.156-.235-.78-.773-1.12-1.48-1.12zM36.961 13.136c0 .916.034 1.663-.437 2.443-.37.645-.942 1.052-1.58 1.052-.875 0-1.413-.678-1.413-1.696 0-1.969 1.748-2.342 3.43-2.342v.543zm2.32 5.667c-.168.136-.437.136-.538.068-.773-.61-1.311-1.527-1.311-1.527-1.245 1.29-2.153 1.697-3.8 1.697-1.918 0-3.43-1.188-3.43-3.597 0-1.867 1.008-3.157 2.454-3.801 1.245-.543 2.993-.645 4.305-.815 0 0 .1-1.46-.27-1.968-.302-.407-.806-.611-1.277-.611-.84 0-1.682.475-1.85 1.357-.033.272-.235.476-.437.442l-2.186-.238c-.168-.034-.404-.204-.336-.475.504-2.715 2.96-3.563 5.145-3.563 1.11 0 2.59.305 3.464 1.153 1.11 1.052 1.01 2.444 1.01 4.005v3.597c0 1.086.436 1.561.874 2.138.134.204.168.475 0 .611-.538.374-1.816 1.527-1.816 1.527zM6.86 13.136c0 .916.034 1.663-.436 2.443-.37.645-.942 1.052-1.581 1.052-.874 0-1.413-.678-1.413-1.696 0-1.969 1.75-2.342 3.43-2.342v.543zm2.321 5.667c-.168.136-.437.136-.538.068-.773-.61-1.311-1.527-1.311-1.527-1.245 1.29-2.153 1.697-3.8 1.697C1.613 18.973.1 17.785.1 15.376c0-1.867 1.009-3.156 2.455-3.801 1.244-.543 2.993-.645 4.305-.815 0 0 .1-1.459-.27-1.968-.302-.407-.806-.61-1.277-.61-.841 0-1.682.474-1.85 1.357-.067.271-.235.509-.437.475L.84 9.776c-.168-.034-.404-.203-.337-.475.505-2.749 2.926-3.563 5.112-3.563 1.11 0 2.59.305 3.465 1.153 1.11 1.053 1.008 2.444 1.008 4.005v3.597c0 1.086.438 1.562.875 2.138.134.204.168.476 0 .611-.505.408-1.783 1.561-1.783 1.561zM15.908 12.084c0-1.392-.068-3.292 1.58-3.292 1.615 0 1.413 1.934 1.413 3.292v6.312c0 .238.168.407.403.441h2.287a.447.447 0 0 0 .438-.44v-6.313c0-.679-.034-1.663.201-2.274.236-.61.808-.984 1.38-.984.672 0 1.176.237 1.345 1.018.1.475.067 1.73.067 2.24v6.312c0 .238.168.407.403.441h2.287a.447.447 0 0 0 .438-.44v-7.5c0-1.29.134-2.716-.572-3.734-.64-.916-1.682-1.29-2.657-1.29-1.345 0-2.623.713-3.161 2.206-.64-1.493-1.547-2.206-2.994-2.206-1.412 0-2.455.713-3.026 2.206h-.034V6.552a.447.447 0 0 0-.437-.441h-2.153a.447.447 0 0 0-.437.441v11.844c0 .238.202.441.437.441h2.354a.447.447 0 0 0 .438-.44v-6.313zM68.003 18.396a.447.447 0 0 1-.437.441h-2.287a.447.447 0 0 1-.437-.44V6.551c0-.237.201-.441.437-.441h2.118c.236 0 .438.204.438.34v1.798h.033c.64-1.629 1.547-2.41 3.128-2.41 1.043 0 2.052.374 2.69 1.392.606.95.606 2.545.606 3.699v7.466a.439.439 0 0 1-.437.373h-2.287c-.202 0-.37-.17-.404-.373v-7.195c0-2.409-.908-2.477-1.446-2.477-.605 0-1.11.475-1.312.95-.336.713-.37 1.46-.37 2.274l-.033 6.448z"/></g><g fill="#0C8281" fill-rule="nonzero"><path d="M81.49 23.962c-.337 0-.505-.17-.505-.51V6.655c0-.34.168-.51.504-.51h1.076c.337 0 .505.17.572.51l.135.814c1.244-1.12 2.656-1.662 4.17-1.662 1.614 0 2.859.576 3.767 1.764.908 1.188 1.378 2.75 1.378 4.785 0 2.037-.47 3.7-1.446 4.921-.975 1.222-2.253 1.833-3.867 1.833-1.48 0-2.758-.475-3.834-1.46v5.838c0 .34-.168.509-.505.509H81.49v-.034zm5.212-6.855c2.287 0 3.397-1.562 3.397-4.65 0-1.595-.27-2.749-.841-3.53-.538-.78-1.413-1.153-2.522-1.153-1.178 0-2.287.373-3.296 1.154v6.957c1.076.814 2.152 1.222 3.262 1.222zM95.682 18.803c-.337 0-.505-.17-.505-.509V.851c0-.34.168-.51.505-.51h1.446c.336 0 .504.17.504.51v6.617c1.58-1.12 3.162-1.662 4.81-1.662 1.21 0 2.118.305 2.757.95.64.645.942 1.56.942 2.783v8.79c0 .339-.168.508-.505.508h-1.446c-.336 0-.504-.17-.504-.509v-7.975c0-.882-.168-1.527-.538-1.934-.37-.408-.908-.611-1.682-.611-1.311 0-2.59.407-3.834 1.255v9.265c0 .34-.168.51-.504.51h-1.446v-.035zM112.43 19.143c-1.177 0-2.119-.34-2.791-1.018-.707-.68-1.043-1.561-1.043-2.715 0-1.222.437-2.172 1.278-2.919.84-.713 2.018-1.086 3.464-1.086.908 0 1.95.136 3.128.407V10.15c0-.882-.202-1.527-.606-1.9-.403-.373-1.076-.543-2.051-.543-1.144 0-2.253.17-3.33.509-.37.102-.605.17-.706.17-.202 0-.303-.136-.303-.441v-.68c0-.203.034-.373.101-.474.068-.102.202-.204.404-.272.504-.237 1.143-.407 1.95-.577a13.401 13.401 0 0 1 2.321-.203c1.58 0 2.724.339 3.464.984.74.645 1.11 1.663 1.11 3.02v8.518c0 .34-.168.51-.504.51h-1.077c-.302 0-.504-.17-.538-.476l-.134-.814c-.606.509-1.245.916-1.95 1.188-.774.339-1.48.475-2.187.475zm.605-1.867c.539 0 1.11-.102 1.716-.34.605-.203 1.177-.542 1.715-.95v-2.545c-.875-.203-1.749-.339-2.623-.339-1.85 0-2.792.713-2.792 2.172 0 .645.168 1.12.505 1.46.336.373.807.542 1.48.542zM122.587 18.803c-.337 0-.505-.17-.505-.509V6.654c0-.34.168-.51.505-.51h1.076c.168 0 .303.035.37.103.1.068.168.203.202.373l.168 1.391a12.15 12.15 0 0 1 1.244-1.153 5.075 5.075 0 0 1 1.211-.611 4.301 4.301 0 0 1 1.345-.204c.202 0 .404 0 .606.034.269.034.403.17.403.441v1.358c0 .305-.134.44-.437.44-.135 0-.303 0-.437-.033-.135 0-.303-.034-.471-.034-1.312 0-2.455.407-3.397 1.188v8.823c0 .34-.168.51-.504.51h-1.38v.033zM131.768 18.803c-.336 0-.504-.17-.504-.509V6.654c0-.34.168-.51.504-.51h1.076c.169 0 .303.035.37.103.101.068.168.203.202.373l.135.814c1.58-1.086 3.127-1.662 4.607-1.662 1.547 0 2.556.576 3.128 1.764 1.648-1.188 3.262-1.764 4.91-1.764 1.144 0 2.018.339 2.623.984.606.645.908 1.56.908 2.783v8.79c0 .339-.168.508-.504.508h-1.446c-.337 0-.505-.17-.505-.509v-8.11c0-.815-.168-1.46-.47-1.833-.303-.408-.808-.611-1.48-.611-1.211 0-2.422.373-3.633 1.12 0 .102.034.237.034.373v9.027c0 .34-.168.51-.504.51h-1.447c-.336 0-.504-.17-.504-.51v-8.077c0-.814-.168-1.459-.47-1.832-.304-.408-.808-.611-1.48-.611-1.245 0-2.456.373-3.6 1.086v9.434c0 .34-.167.51-.504.51h-1.446zM156.016 19.143c-1.177 0-2.118-.34-2.791-1.018-.706-.68-1.043-1.561-1.043-2.715 0-1.222.438-2.172 1.278-2.919.841-.713 2.018-1.086 3.465-1.086.908 0 1.95.136 3.127.407V10.15c0-.882-.202-1.527-.605-1.9-.404-.373-1.076-.543-2.052-.543-1.143 0-2.253.17-3.33.509-.37.102-.605.17-.705.17-.202 0-.303-.136-.303-.441v-.68c0-.203.034-.373.1-.474.068-.102.203-.204.404-.272.505-.237 1.144-.407 1.951-.577a13.401 13.401 0 0 1 2.32-.203c1.581 0 2.725.339 3.465.984.74.645 1.11 1.663 1.11 3.02v8.518c0 .34-.169.51-.505.51h-1.076c-.303 0-.505-.17-.538-.476l-.135-.814c-.605.509-1.244.916-1.95 1.188-.707.271-1.447.475-2.187.475zm.606-1.867c.538 0 1.11-.102 1.715-.34.605-.203 1.177-.542 1.715-.95v-2.545c-.874-.203-1.749-.339-2.623-.339-1.85 0-2.791.713-2.791 2.172 0 .645.168 1.12.504 1.46.336.373.84.542 1.48.542zM170.915 19.075c-1.95 0-3.43-.577-4.473-1.697-1.042-1.12-1.547-2.749-1.547-4.887 0-2.104.538-3.733 1.58-4.887 1.077-1.154 2.557-1.73 4.507-1.73.875 0 1.75.17 2.624.474.168.068.302.136.37.238.067.102.1.272.1.51v.678c0 .34-.1.509-.336.509-.067 0-.202-.034-.403-.068a6.988 6.988 0 0 0-2.052-.305c-1.379 0-2.388.339-2.993 1.052-.605.712-.908 1.832-.908 3.393v.34c0 1.527.303 2.613.942 3.326.605.712 1.58 1.052 2.926 1.052.706 0 1.446-.102 2.22-.34.167-.034.302-.068.37-.068.2 0 .335.17.335.51v.678c0 .204-.033.373-.1.475-.068.102-.202.204-.404.272-.74.305-1.682.475-2.758.475zM178.415 24.267a5.759 5.759 0 0 1-1.412-.17.592.592 0 0 1-.404-.237c-.067-.102-.101-.271-.101-.509v-.645c0-.305.135-.475.37-.475.067 0 .202 0 .37.034.168.034.404.034.673.034.605 0 1.076-.17 1.446-.475.37-.306.672-.849.941-1.63l.471-1.255-4.775-11.878c-.101-.271-.169-.475-.169-.61 0-.204.101-.306.337-.306h1.48c.269 0 .437.034.538.136.1.067.201.271.302.543l3.464 9.706 3.33-9.672c.1-.272.202-.476.303-.543.1-.068.269-.136.538-.136h1.379c.235 0 .336.102.336.305 0 .102-.067.306-.168.611l-5.449 13.982c-.437 1.154-.975 1.969-1.547 2.478-.571.44-1.345.712-2.253.712z"/></g></g></svg>